<svg width="32" height="32" xmlns="http://www.w3.org/2000/svg">
    <g fill="none" fill-rule="evenodd" opacity=".8">
        <path d="M0 0h32v32H0z"/>
        <path d="M18.527 14.076c-.865 0-1.548.742-1.548 1.666 0 .925.698 1.667 1.548 1.667.865 0 1.547-.742 1.547-1.667 0-.924-.698-1.666-1.547-1.666zm-5.538 0c-.865 0-1.548.742-1.548 1.666 0 .925.698 1.667 1.548 1.667.864 0 1.547-.742 1.547-1.667.015-.924-.683-1.666-1.547-1.666z" fill="#FFF" fill-rule="nonzero"/>
        <path d="M25.942 1.47H5.61A3.113 3.113 0 0 0 2.5 4.576v20.303a3.113 3.113 0 0 0 3.11 3.106h17.207l-.804-2.773L23.955 27l1.836 1.682 3.277 2.833V4.575a3.135 3.135 0 0 0-3.126-3.105zm-6.858 18.409c1.988-.56 2.746-1.788 2.746-1.788a8.687 8.687 0 0 1-1.744.894c-.76.318-1.487.515-2.2.651a10.644 10.644 0 0 1-3.93-.015 11.564 11.564 0 0 1-2.23-.651 8.898 8.898 0 0 1-1.108-.515c-.046-.03-.091-.046-.137-.076-.03-.015-.046-.03-.06-.03-.274-.152-.426-.258-.426-.258s.729 1.197 2.656 1.773c-.455.575-1.017 1.242-1.017 1.242-3.353-.106-4.628-2.288-4.628-2.288 0-4.833 2.185-8.757 2.185-8.757 2.185-1.622 4.249-1.576 4.249-1.576l.151.182c-2.73.772-3.975 1.97-3.975 1.97s.334-.182.895-.425c1.624-.712 2.914-.894 3.445-.954.09-.016.167-.03.258-.03a12.856 12.856 0 0 1 3.065-.031c1.441.167 2.989.59 4.567 1.44 0 0-1.199-1.137-3.778-1.91l.212-.242s2.079-.046 4.248 1.576c0 0 2.185 3.924 2.185 8.757 0-.015-1.274 2.167-4.627 2.273 0 0-.547-.652-1.002-1.212z" fill="#FFF" fill-rule="nonzero"/>
    </g>
</svg>
