<svg width="32" height="32" xmlns="http://www.w3.org/2000/svg">
    <g fill="none" fill-rule="evenodd" opacity=".8">
        <path d="M0 0h32v32H0z"/>
        <path d="M11.069 26.667c10.077 0 15.589-8.209 15.589-15.327 0-.233 0-.465-.016-.696a11.045 11.045 0 0 0 2.733-2.788c-1 .435-2.06.721-3.147.847a5.422 5.422 0 0 0 2.409-2.979 11.095 11.095 0 0 1-3.48 1.307c-1.698-1.775-4.396-2.21-6.582-1.06-2.185 1.15-3.315 3.6-2.754 5.973-4.405-.217-8.51-2.263-11.292-5.628-1.454 2.462-.711 5.61 1.696 7.19a5.51 5.51 0 0 1-2.486-.673v.068c0 2.564 1.839 4.772 4.395 5.28a5.561 5.561 0 0 1-2.474.093c.718 2.194 2.775 3.697 5.119 3.74a11.114 11.114 0 0 1-8.109 2.233 15.706 15.706 0 0 0 8.399 2.415" fill="#FFF"/>
    </g>
</svg>
